<?xml version="1.0" encoding="utf-8"?>
<!-- Generator: Adobe Illustrator 19.0.0, SVG Export Plug-In . SVG Version: 6.00 Build 0)  -->
<svg version="1.1" id="Layer_1" xmlns="http://www.w3.org/2000/svg" xmlns:xlink="http://www.w3.org/1999/xlink" x="0px" y="0px"
	 viewBox="0 0 24 24" style="enable-background:new 0 0 24 24;" xml:space="preserve">
<style type="text/css">
	.st0{fill:none;}
</style>
<rect id="XMLID_424_" class="st0" width="24" height="24"/>
<path id="XMLID_190_" d="M21.9,4c-2.7-2.7-7.2-2.7-9.9,0C9.3,1.3,4.8,1.3,2.1,4s-2.7,7.2,0,9.9l8.5,8.5c0.8,0.8,2,0.8,2.8,0
	c0.4-0.4,0.6-1,0.6-1.5c0.6,0,1.1-0.1,1.5-0.6c0.4-0.4,0.6-1,0.6-1.5c0.6,0,1.1-0.1,1.5-0.6c0.4-0.4,0.6-1,0.6-1.5
	c0.6,0,1.1-0.1,1.5-0.6l0,0l2.1-2.1C24.6,11.2,24.6,6.8,21.9,4z M21.2,4.8c2.3,2.3,2.3,6.1,0,8.5c0,0,0,0,0,0l0,0l-0.9,0.9
	c-0.1-0.3-0.3-0.6-0.5-0.9l-4.3-4.3c0.9,0,1.8-0.3,2.5-1c0.1-0.1,0.2-0.3,0.3-0.4l-0.7-0.7c-0.1,0.1-0.2,0.3-0.3,0.4
	c-0.9,0.9-2.2,1-3.1,0.3l0,0l-0.7,0.7l0,0l-1.8,1.8c-0.9,0.9-2.4,1-3.4,0.1l0,0l0,0c0,0-0.1,0-0.1-0.1c-0.2-0.2-0.2-0.5,0-0.7L8.5,9
	l0.4-0.4l0.7-0.7l3.2-3.2C15,2.4,18.9,2.4,21.2,4.8z M16.9,16.1c0.4,0.4,0.4,1,0,1.4s-1,0.4-1.4,0L12,13.9l-0.7,0.7l3.5,3.5
	c0.4,0.4,0.4,1,0,1.4s-1,0.4-1.4,0l-3.5-3.5l-0.7,0.7l3.5,3.5c0.4,0.4,0.4,1,0,1.4s-1,0.4-1.4,0l-8.5-8.5c-2.3-2.3-2.3-6.1,0-8.5
	s6.1-2.3,8.5,0L7.4,8.6c-0.6,0.6-0.6,1.5,0,2.1c0.1,0.1,0.2,0.1,0.2,0.2c1.4,1.2,3.4,1.1,4.7-0.2L14.1,9l4.9,4.9
	c0.4,0.4,0.4,1,0,1.4s-1,0.4-1.4,0l-3.5-3.5l-0.7,0.7L16.9,16.1z"/>
</svg>
