<?xml version="1.0" encoding="utf-8"?>
<!-- Generator: Adobe Illustrator 19.0.0, SVG Export Plug-In . SVG Version: 6.00 Build 0)  -->
<svg version="1.1" id="Layer_1" xmlns="http://www.w3.org/2000/svg" xmlns:xlink="http://www.w3.org/1999/xlink" x="0px" y="0px"
	 viewBox="0 0 24 24" style="enable-background:new 0 0 24 24;" xml:space="preserve">
<style type="text/css">
	.st0{fill:none;}
	.st1{fill:#000000;}
</style>
<rect id="XMLID_424_" class="st0" width="24" height="24"/>
<path id="XMLID_324_" class="st1" d="M12,10c1.1,0,2,0.9,2,2s-0.9,2-2,2s-2-0.9-2-2S10.9,10,12,10 M12,9c-1.7,0-3,1.3-3,3s1.3,3,3,3
	s3-1.3,3-3S13.7,9,12,9L12,9z"/>
<path id="XMLID_20_" class="st1" d="M23,12.5v-1h-2c0-0.9-0.2-1.7-0.5-2.5l1.9-0.8L22,7.3l-1.9,0.8c-0.4-0.8-0.8-1.5-1.4-2.1
	l1.4-1.4l-0.7-0.7L18,5.3c-0.6-0.6-1.3-1-2.1-1.4L16.7,2l-0.9-0.4L15,3.5c-0.8-0.3-1.6-0.4-2.5-0.5V1h-1v2c-0.9,0-1.7,0.2-2.5,0.5
	L8.3,1.6L7.3,2l0.8,1.9C7.3,4.3,6.6,4.7,6,5.3L4.6,3.9L3.9,4.6L5.3,6c-0.6,0.6-1,1.3-1.4,2.1L2,7.3L1.6,8.3L3.5,9
	C3.2,9.8,3.1,10.6,3,11.5H1v1h2c0,0.9,0.2,1.7,0.5,2.5l-1.9,0.8L2,16.7l1.9-0.8c0.4,0.8,0.8,1.5,1.4,2.1l-1.4,1.4l0.7,0.7L6,18.7
	c0.6,0.6,1.3,1,2.1,1.4L7.3,22l0.9,0.4L9,20.5c0.8,0.3,1.6,0.4,2.5,0.5v2h1v-2c0.9,0,1.7-0.2,2.5-0.5l0.8,1.9l0.9-0.4l-0.8-1.9
	c0.8-0.4,1.5-0.8,2.1-1.4l1.4,1.4l0.7-0.7L18.7,18c0.6-0.6,1-1.3,1.4-2.1l1.9,0.8l0.4-0.9L20.5,15c0.3-0.8,0.4-1.6,0.5-2.5H23z
	 M12,20c-4.4,0-8-3.6-8-8c0-4.4,3.6-8,8-8s8,3.6,8,8C20,16.4,16.4,20,12,20z"/>
</svg>
