<?xml version="1.0" encoding="utf-8"?>
<!-- Generator: Adobe Illustrator 19.0.0, SVG Export Plug-In . SVG Version: 6.00 Build 0)  -->
<svg version="1.1" id="Layer_1" xmlns="http://www.w3.org/2000/svg" xmlns:xlink="http://www.w3.org/1999/xlink" x="0px" y="0px"
	 viewBox="0 0 24 24" style="enable-background:new 0 0 24 24;" xml:space="preserve">
<style type="text/css">
	.st0{fill:none;}
	.st1{fill:#000000;}
</style>
<rect id="XMLID_424_" class="st0" width="24" height="24"/>
<path id="XMLID_430_" class="st1" d="M12,19.1L12,19.1l-6.6-6.6C5.2,12.3,5,12,4.8,11.8h3.4L10,10l4,4l2.2-2.2h2.9
	c-0.2,0.2-0.4,0.5-0.6,0.7L12,19.1L12,19.1z M5.4,5.9C6.3,5,7.5,4.5,8.7,4.5c1.1,0,2.1,0.4,3,1.1L12,5.8l0.3-0.3
	c1.8-1.5,4.6-1.4,6.3,0.3C19.5,6.7,20,7.9,20,9.2c0,0.6-0.1,1.1-0.3,1.6h-3.9L14,12.6l-4-4l-2.2,2.2H4.3C4.1,10.3,4,9.7,4,9.2
	C4,7.9,4.5,6.8,5.4,5.9z M19.3,5.2c-2-2-5.1-2.2-7.3-0.6C9.8,3,6.6,3.2,4.7,5.2C3.6,6.2,3,7.7,3,9.2s0.6,2.9,1.7,4l7.3,7.3l7.3-7.3
	c1.1-1.1,1.7-2.5,1.7-4S20.4,6.2,19.3,5.2z"/>
</svg>
