<?xml version="1.0" encoding="utf-8"?>
<!-- Generator: Adobe Illustrator 19.0.0, SVG Export Plug-In . SVG Version: 6.00 Build 0)  -->
<svg version="1.1" id="Layer_1" xmlns="http://www.w3.org/2000/svg" xmlns:xlink="http://www.w3.org/1999/xlink" x="0px" y="0px"
	 viewBox="0 0 24 24" style="enable-background:new 0 0 24 24;" xml:space="preserve">
<style type="text/css">
	.st0{fill:none;}
	.st1{fill:#000000;}
</style>
<rect id="XMLID_424_" class="st0" width="24" height="24"/>
<path id="XMLID_312_" class="st1" d="M14.5,16.6L14.5,16.6L14.5,16.6l0.4-0.4c1.4-1.4,1.4-3.6,0-4.9l-5-5c-1-1-1-2.6,0-3.5
	c1-1,2.6-1,3.5,0s1,2.6,0,3.5L14.1,7c1.4-1.4,1.4-3.6,0-4.9c-1.4-1.4-3.6-1.4-4.9,0C7.8,3.5,7.8,5.7,9.2,7l0.4,0.4l0,0L9.2,7.8
	c-1.4,1.4-1.4,3.6,0,4.9l4.9,4.9c1,1,1,2.6,0,3.5s-2.6,1-3.5,0s-1-2.6,0-3.5l-0.7-0.7c-1.4,1.4-1.4,3.6,0,4.9s3.6,1.4,4.9,0
	c1.4-1.4,1.4-3.6,0-4.9L14.5,16.6z M9.9,12c-1-1-1-2.6,0-3.5l0.4-0.4l3.9,3.9c1,1,1,2.6,0,3.5l-0.4,0.4L9.9,12z"/>
</svg>
