<?xml version="1.0" encoding="utf-8"?>
<!-- Generator: Adobe Illustrator 19.0.0, SVG Export Plug-In . SVG Version: 6.00 Build 0)  -->
<svg version="1.1" id="Layer_1" xmlns="http://www.w3.org/2000/svg" xmlns:xlink="http://www.w3.org/1999/xlink" x="0px" y="0px"
	 viewBox="0 0 24 24" style="enable-background:new 0 0 24 24;" xml:space="preserve">
<style type="text/css">
	.st0{fill:none;}
	.st1{fill:#000000;}
</style>
<rect id="XMLID_424_" class="st0" width="24" height="24"/>
<g id="XMLID_383_">
	<path id="XMLID_387_" class="st1" d="M12,19.5c-4.1,0-7.5-3.4-7.5-7.5S7.9,4.5,12,4.5s7.5,3.4,7.5,7.5S16.1,19.5,12,19.5z
		 M22.5,12.5v-1h-2c0-0.8-0.2-1.5-0.5-2.3l1.9-0.8l-0.4-0.9l-1.9,0.8c-0.3-0.7-0.8-1.4-1.3-1.9L19.7,5L19,4.3l-1.4,1.4
		c-0.6-0.5-1.2-1-1.9-1.3l0.8-1.9l-0.9-0.4L14.8,4c-0.7-0.3-1.5-0.4-2.3-0.5v-2h-1v2c-0.8,0-1.6,0.2-2.3,0.5L8.4,2.1L7.5,2.5
		l0.8,1.9C7.6,4.7,6.9,5.1,6.4,5.7L4.9,4.2L4.2,4.9l1.4,1.4c-0.5,0.6-1,1.2-1.3,1.9L2.5,7.5L2.1,8.4L4,9.2c-0.3,0.7-0.4,1.5-0.5,2.3
		h-2v1h2c0,0.8,0.2,1.6,0.5,2.3l-1.9,0.8l0.4,0.9l1.9-0.8c0.3,0.7,0.8,1.4,1.3,1.9L4.3,19L5,19.7l1.4-1.4c0.6,0.5,1.2,1,1.9,1.3
		l-0.8,1.9l0.9,0.4L9.2,20c0.7,0.3,1.5,0.4,2.3,0.5v2h1v-2c0.8,0,1.6-0.2,2.3-0.5l0.8,1.9l0.9-0.4l-0.8-1.9c0.7-0.3,1.3-0.8,1.9-1.3
		l1.4,1.4l0.7-0.7l-1.4-1.4c0.5-0.6,1-1.2,1.3-1.9l1.9,0.8l0.4-0.9L20,14.8c0.3-0.7,0.4-1.5,0.5-2.3H22.5z"/>
	<path id="XMLID_384_" class="st1" d="M12,13.5c-0.8,0-1.5-0.7-1.5-1.5s0.7-1.5,1.5-1.5s1.5,0.7,1.5,1.5S12.8,13.5,12,13.5 M12,9.5
		c-1.4,0-2.5,1.1-2.5,2.5s1.1,2.5,2.5,2.5s2.5-1.1,2.5-2.5S13.4,9.5,12,9.5"/>
</g>
</svg>
