<?xml version="1.0" encoding="utf-8"?>
<!-- Generator: Adobe Illustrator 19.0.0, SVG Export Plug-In . SVG Version: 6.00 Build 0)  -->
<svg version="1.1" id="Layer_1" xmlns="http://www.w3.org/2000/svg" xmlns:xlink="http://www.w3.org/1999/xlink" x="0px" y="0px"
	 viewBox="0 0 24 24" style="enable-background:new 0 0 24 24;" xml:space="preserve">
<style type="text/css">
	.st0{fill:none;}
	.st1{fill:#000000;}
</style>
<rect id="XMLID_424_" class="st0" width="24" height="24"/>
<path id="XMLID_389_" class="st1" d="M12,8c-1.7,0-3-1.3-3-3s1.3-3,3-3s3,1.3,3,3S13.7,8,12,8z M12,3c-1.1,0-2,0.9-2,2s0.9,2,2,2
	s2-0.9,2-2S13.1,3,12,3z"/>
<path id="XMLID_394_" class="st1" d="M13.5,20c0,0.6-0.4,1-1,1h-1c-0.6,0-1-0.4-1-1v-8c0-0.6,0.4-1,1-1h1c0.6,0,1,0.4,1,1V20z
	 M14.5,20v-8c0-1.1-0.9-2-2-2h-1c-1.1,0-2,0.9-2,2v8c0,1.1,0.9,2,2,2h1C13.6,22,14.5,21.1,14.5,20z"/>
</svg>
