<?xml version="1.0" encoding="utf-8"?>
<!-- Generator: Adobe Illustrator 19.0.0, SVG Export Plug-In . SVG Version: 6.00 Build 0)  -->
<svg version="1.1" id="Layer_1" xmlns="http://www.w3.org/2000/svg" xmlns:xlink="http://www.w3.org/1999/xlink" x="0px" y="0px"
	 viewBox="0 0 24 24" style="enable-background:new 0 0 24 24;" xml:space="preserve">
<style type="text/css">
	.st0{fill:none;}
</style>
<rect id="XMLID_424_" class="st0" width="24" height="24"/>
<path id="XMLID_295_" d="M4.5,3C3.7,3,3,3.7,3,4.5v11C3,16.3,3.7,17,4.5,17h9.2l3.3,3.3V17h2.5c0.8,0,1.5-0.7,1.5-1.5v-11
	C21,3.7,20.3,3,19.5,3H4.5z M18,22.7L13.3,18H4.5C3.1,18,2,16.9,2,15.5v-11C2,3.1,3.1,2,4.5,2h15C20.9,2,22,3.1,22,4.5v11
	c0,1.4-1.1,2.5-2.5,2.5H18V22.7z"/>
</svg>
