<?xml version="1.0" encoding="utf-8"?>
<!-- Generator: Adobe Illustrator 19.0.0, SVG Export Plug-In . SVG Version: 6.00 Build 0)  -->
<svg version="1.1" id="Layer_1" xmlns="http://www.w3.org/2000/svg" xmlns:xlink="http://www.w3.org/1999/xlink" x="0px" y="0px"
	 viewBox="0 0 24 24" style="enable-background:new 0 0 24 24;" xml:space="preserve">
<style type="text/css">
	.st0{fill:none;}
	.st1{fill:#000000;}
</style>
<rect id="XMLID_424_" class="st0" width="24" height="24"/>
<path id="XMLID_25_" class="st1" d="M5.5,11c0.6,0,1.2,0.2,1.6,0.6L7.9,11c-0.6-0.6-1.4-1-2.3-1c0,0,0,0,0,0c-0.9,0-1.8,0.4-2.4,1
	l0.7,0.7C4.2,11.2,4.9,11,5.5,11z"/>
<path id="XMLID_38_" class="st1" d="M11.5,11c0.6,0,1.2,0.2,1.6,0.6l0.7-0.7c-0.6-0.6-1.4-1-2.3-1c0,0,0,0,0,0c-0.9,0-1.8,0.4-2.4,1
	l0.7,0.7C10.2,11.2,10.9,11,11.5,11z"/>
<path id="XMLID_40_" class="st1" d="M4.1,17c1.1,1.3,2.6,2,4.3,2c0,0,0,0,0,0c1.7,0,3.4-0.7,4.4-2l-0.8-0.6c-0.9,1-2.2,1.6-3.7,1.6
	c0,0,0,0,0,0c-1.4,0-2.7-0.6-3.5-1.6L4.1,17z"/>
<path id="XMLID_41_" class="st1" d="M18.5,9c0.9,0,1.8-0.4,2.4-1l-0.7-0.7c-0.4,0.4-1,0.6-1.7,0.6c0,0,0,0,0,0
	c-0.6,0-1.2-0.2-1.6-0.6L16.1,8C16.7,8.7,17.5,9,18.5,9C18.5,9,18.5,9,18.5,9z"/>
<path id="XMLID_48_" class="st1" d="M8,3v3H1v9.5C1,19.6,4.4,23,8.5,23c2.5,0,4.7-1.2,6-3.1c0.3,0,0.6,0.1,1,0.1
	c4.1,0,7.5-3.4,7.5-7.5V3H8z M15,15.5c0,3.6-2.9,6.5-6.5,6.5S2,19.1,2,15.5V7h13V15.5z M22,12.5c0,3.6-2.9,6.5-6.5,6.5
	c-0.1,0-0.2,0-0.4,0l0,0c0.5-1,0.9-2.2,0.9-3.5V14c1.2,0.1,2.3,0.6,3.1,1.6l0.8-0.6c-1-1.2-2.3-1.9-3.9-2V6H9V4h13V12.5z"/>
</svg>
