<?xml version="1.0" encoding="utf-8"?>
<!-- Generator: Adobe Illustrator 19.0.0, SVG Export Plug-In . SVG Version: 6.00 Build 0)  -->
<svg version="1.1" id="Layer_1" xmlns="http://www.w3.org/2000/svg" xmlns:xlink="http://www.w3.org/1999/xlink" x="0px" y="0px"
	 viewBox="0 0 24 24" style="enable-background:new 0 0 24 24;" xml:space="preserve">
<style type="text/css">
	.st0{fill:none;}
	.st1{fill:#000000;}
</style>
<rect id="XMLID_424_" class="st0" width="24" height="24"/>
<path id="XMLID_398_" class="st1" d="M1.5,19V4h8c1.1,0,2,0.6,2.5,1.4C12.6,4.6,13.4,4,14.5,4h8v15h-8c-1.1,0-2,0.9-2,2h-1
	c0-1.1-0.9-2-2-2H1.5z M12.5,18.8c0.5-0.5,1.3-0.8,2-0.8h7V5h-7c-1.1,0-2,0.9-2,2V18.8z M2.5,18h7c0.8,0,1.5,0.3,2,0.8V7
	c0-1.1-0.9-2-2-2h-7V18z"/>
</svg>
