<?xml version="1.0" encoding="UTF-8"?>
<svg width="24px" height="24px" viewBox="0 0 24 24" version="1.1" xmlns="http://www.w3.org/2000/svg" xmlns:xlink="http://www.w3.org/1999/xlink">
    <title>Topic-Icons/29_a</title>
    <g id="Topic-Icons/29_a" stroke="none" stroke-width="1" fill="none" fill-rule="evenodd">
        <g id="Group" transform="translate(1.000000, 3.999900)" fill="#FFFFFF">
            <path d="M1.97,13.045 L19.992,13.045 L19.992,0 L1.97,0 L1.97,13.045 Z M2.97,12.045 L18.992,12.045 L18.992,1 L2.97,1 L2.97,12.045 Z" id="Fill-7"></path>
            <path d="M7.65684607,7.8458796 L5.84353046,7.8458796 L5.46414882,8.93579803 L4.61857789,8.93579803 L6.38688212,4.25461446 L7.1167095,4.25461446 L8.88822883,8.93579803 L8.0394428,8.93579803 L7.65684607,7.8458796 Z M6.07180246,7.18999949 L7.42857407,7.18999949 L6.75018826,5.24807993 L6.07180246,7.18999949 Z M9.4187201,8.93579803 L9.4187201,4.25461446 L11.0230543,4.25461446 C11.2759767,4.25461446 11.5031747,4.27979915 11.7046552,4.33016928 C11.9061357,4.38053941 12.0765343,4.45716516 12.2158559,4.56004883 C12.3551775,4.6629325 12.4618106,4.79421438 12.5357582,4.95389841 C12.6097058,5.11358244 12.6466791,5.30273551 12.6466791,5.52136331 C12.6466791,5.73570429 12.5888079,5.92860828 12.4730638,6.10008106 C12.3573196,6.27155384 12.1879928,6.40444326 11.9650782,6.49875329 C12.100113,6.53519125 12.2174629,6.58823985 12.3171315,6.65790067 C12.4168001,6.72756149 12.4993201,6.80954568 12.5646941,6.90385571 C12.6300681,6.99816527 12.6788299,7.10211956 12.7109811,7.21572028 C12.7431322,7.32932099 12.7592076,7.44720676 12.7592076,7.56938112 C12.7592076,7.79443915 12.7222343,7.99216574 12.6482867,8.16256681 C12.574339,8.33296789 12.4671701,8.4755025 12.3267768,8.59017493 C12.1863834,8.70484735 12.0159849,8.7911183 11.8155761,8.84899037 C11.6151673,8.90686243 11.3885051,8.93579803 11.1355828,8.93579803 L9.4187201,8.93579803 Z M10.2321401,6.82347825 L10.2321401,8.28634811 L11.1355828,8.28634811 C11.2684742,8.28634811 11.3858241,8.26920109 11.4876361,8.23490653 C11.589448,8.20061198 11.6746473,8.15185013 11.7432364,8.08861955 C11.8118255,8.02538896 11.8632666,7.9498349 11.8975611,7.86195509 C11.9318557,7.77407529 11.9490027,7.67655161 11.9490027,7.56938112 C11.9490027,7.33789286 11.8879164,7.15570577 11.7657421,7.02281436 C11.6435677,6.88992295 11.4453053,6.82347825 11.1709488,6.82347825 L10.2321401,6.82347825 Z M10.2321401,6.22546991 L11.0294845,6.22546991 C11.2824069,6.22546991 11.4801334,6.16813455 11.6226702,6.05346213 C11.7652069,5.93878971 11.8364743,5.77642885 11.8364743,5.56637469 C11.8364743,5.33488643 11.7705654,5.16770298 11.6387457,5.06481931 C11.506926,4.96193564 11.3016976,4.91049458 11.0230543,4.91049458 L10.2321401,4.91049458 L10.2321401,6.22546991 Z M17.144602,7.41184129 C17.123168,7.64118614 17.0695835,7.85284468 16.9838471,8.04682326 C16.8981107,8.24080185 16.7791533,8.40852115 16.6269712,8.5499862 C16.4747891,8.69145124 16.2888511,8.80183519 16.0691516,8.88114135 C15.8494521,8.96044751 15.5959977,9.0001 15.3087807,9.0001 C15.0215638,9.0001 14.7616793,8.94812309 14.5291193,8.84416772 C14.2965594,8.74021234 14.0982969,8.59231929 13.9343261,8.40048411 C13.7703552,8.20864893 13.6444318,7.97662831 13.556552,7.70441526 C13.4686722,7.43220222 13.424733,7.12677091 13.424733,6.78811216 L13.424733,6.40873053 C13.424733,6.07221519 13.4697439,5.76731972 13.5597671,5.49403497 C13.6497903,5.22075023 13.778393,4.98765791 13.9455789,4.79475103 C14.1127649,4.60184415 14.3147782,4.4528794 14.551625,4.34785232 C14.7884718,4.24282524 15.0537148,4.19031249 15.3473619,4.19031249 C15.6260052,4.19031249 15.8724936,4.23050082 16.0868346,4.31087869 C16.3011756,4.39125655 16.4828268,4.50271219 16.6317938,4.64524894 C16.7807608,4.78778569 16.8975749,4.95764837 16.9822396,5.15484207 C17.0669043,5.35203577 17.1210245,5.56744522 17.144602,5.80107689 L16.3343972,5.80107689 C16.3172499,5.65318161 16.2877785,5.5202922 16.245982,5.40240466 C16.2041855,5.28451712 16.1447068,5.18431422 16.067544,5.10179294 C15.9903813,5.01927167 15.8928576,4.95657787 15.77497,4.91370967 C15.6570825,4.87084148 15.5145479,4.8494077 15.3473619,4.8494077 C15.1630287,4.8494077 15.0017395,4.88423759 14.8634896,4.95389841 C14.7252397,5.02355923 14.6100331,5.12429797 14.5178665,5.25611768 C14.4256999,5.38793738 14.3565759,5.55029823 14.3104926,5.74320511 C14.2644093,5.936112 14.241368,6.1558082 14.241368,6.40230033 L14.241368,6.78811216 C14.241368,7.02174383 14.2617301,7.23393821 14.3024549,7.42470168 C14.3431797,7.61546516 14.4064093,7.7788977 14.4921457,7.91500422 C14.5778821,8.05111074 14.688266,8.15667209 14.8233009,8.23169143 C14.9583357,8.30671078 15.1201607,8.34421988 15.3087807,8.34421988 C15.4845403,8.34421988 15.6329692,8.3238578 15.7540719,8.28313301 C15.8751746,8.24240823 15.9753775,8.18239365 16.0546836,8.10308749 C16.1339898,8.02378133 16.1956119,7.92625765 16.2395518,7.81051352 C16.2834917,7.69476939 16.3151065,7.56187997 16.3343972,7.41184129 L17.144602,7.41184129 Z" id="ABC" fill-rule="nonzero"></path>
            <path d="M19.992,12.0453 L1.97,12.0453 L0,16.0693 L22,16.0001 L19.992,12.0453 Z M19.38,13.0453 L20.412,15.0693 L1.602,15.0693 L2.594,13.0453 L19.38,13.0453 Z" id="Fill-9"></path>
        </g>
    </g>
</svg>