<?xml version="1.0" encoding="UTF-8"?>
<svg width="24px" height="24px" viewBox="0 0 24 24" version="1.1" xmlns="http://www.w3.org/2000/svg" xmlns:xlink="http://www.w3.org/1999/xlink">
    <title>Topic-Icons/30_a</title>
    <g id="Topic-Icons/30_a" stroke="none" stroke-width="1" fill="none" fill-rule="evenodd">
        <g id="Group-2" transform="translate(1.007800, 2.982727)" fill="#FFFFFF">
            <g id="Group" transform="translate(5.992000, 6.011573)">
                <polygon id="Fill-1" points="5.9112 13.3261 6.9112 13.3261 6.9112 10.8261 5.9112 10.8261"></polygon>
                <polygon id="Fill-2" points="2.9112 13.3261 3.9112 13.3261 3.9112 10.8261 2.9112 10.8261"></polygon>
                <path d="M4.8841,0 C3.7811,0 2.8881,0.895 2.8881,1.997 C2.8881,3.1 3.7811,3.994 4.8841,3.994 C5.9881,3.994 6.8811,3.1 6.8811,1.997 C6.8811,0.895 5.9881,0 4.8841,0 M4.8841,1 C5.4341,1 5.8811,1.447 5.8811,1.997 C5.8811,2.547 5.4341,2.994 4.8841,2.994 C4.3341,2.994 3.8881,2.547 3.8881,1.997 C3.8881,1.447 4.3341,1 4.8841,1" id="Fill-3"></path>
                <path d="M2.9112,11.0441 L6.9112,11.0441 L6.9112,5.0671 L2.9112,5.0671 L2.9112,11.0441 Z M3.9112,10.0441 L5.9112,10.0441 L5.9112,6.0671 L3.9112,6.0671 L3.9112,10.0441 Z" id="Fill-5"></path>
                <polygon id="Fill-7" points="6.933 5.0625 6.345 5.0625 5.92 5.3405 8.986 10.0235 9.822 9.4765"></polygon>
                <polygon id="Fill-8" points="2.889 5.0625 3.477 5.0625 3.902 5.3405 1 10.0057 0 9.4765"></polygon>
            </g>
            <path d="M3.5,1.02857301 C2.123,1.02857301 1.008,2.14357301 1.008,3.52057301 C1.008,4.89657301 2.123,6.01157301 3.5,6.01157301 C4.876,6.01157301 5.992,4.89657301 5.992,3.52057301 C5.992,2.14357301 4.876,1.02857301 3.5,1.02857301 M3.5,2.02857301 C4.322,2.02857301 4.992,2.69757301 4.992,3.52057301 C4.992,4.34257301 4.322,5.01157301 3.5,5.01157301 C2.677,5.01157301 2.008,4.34257301 2.008,3.52057301 C2.008,2.69757301 2.677,2.02857301 3.5,2.02857301" id="Fill-6-Copy"></path>
            <path d="M18.484,0 C17.107,0 15.992,1.115 15.992,2.492 C15.992,3.868 17.107,4.983 18.484,4.983 C19.86,4.983 20.976,3.868 20.976,2.492 C20.976,1.115 19.86,0 18.484,0 M18.484,1 C19.306,1 19.976,1.669 19.976,2.492 C19.976,3.314 19.306,3.983 18.484,3.983 C17.661,3.983 16.992,3.314 16.992,2.492 C16.992,1.669 17.661,1 18.484,1" id="Fill-6-Copy-2"></path>
            <path d="M3.5,6.98844566 L3.6920352,6.99367037 C5.5357224,7.09424755 7,8.63432364 7,10.5194274 L6.992,16.0204457 L5.99461721,16.0208529 C5.9981871,15.9657045 6,15.9100725 6,15.8540133 L6,10.5194274 C6,9.18221095 4.96846406,8.08805526 3.66437569,8.00266235 L3.5,7.9972976 L3.33562431,8.00266235 C2.03153594,8.08805526 1,9.18221095 1,10.5194274 L1,15.8540133 C1,15.9100725 1.0018129,15.9657045 1.00538279,16.0208529 L0.00384222439,16.0209427 C0.00129019961,15.9656226 0,15.90997 0,15.8540133 L0,10.5194274 C0,8.63432364 1.4642776,7.09424755 3.3079648,6.99367037 L3.5,6.98844566 Z" id="Combined-Shape" fill-rule="nonzero"></path>
            <path d="M19.4922,6.09272388 C20.8729119,6.09272388 21.9922,7.23838796 21.9922,8.65163623 L21.9922,16.0377239 L20.9922,16.0377239 L20.9922,8.65163623 C20.9922,7.80368727 20.3206271,7.11628882 19.4922,7.11628882 L17.4922,7.11628882 C16.6637729,7.11628882 15.9922,7.80368727 15.9922,8.65163623 L15.9922,16.0377239 L14.9922,16.0377239 L14.9922,8.65163623 C14.9922,7.23838796 16.1114881,6.09272388 17.4922,6.09272388 L19.4922,6.09272388 Z" id="Combined-Shape" fill-rule="nonzero"></path>
        </g>
    </g>
</svg>