<?xml version="1.0" encoding="UTF-8"?>
<svg width="24px" height="24px" viewBox="0 0 24 24" version="1.1" xmlns="http://www.w3.org/2000/svg" xmlns:xlink="http://www.w3.org/1999/xlink">
    <title>Topic-Icons/01_a</title>
    <g id="Topic-Icons/01_a" stroke="none" stroke-width="1" fill="none" fill-rule="evenodd">
        <g id="Group-3" transform="translate(2.000000, 3.000000)" fill="#FFFFFF">
            <path d="M5.0005,-0.0002 L5.0005,3.0008 L0.9995,3.0008 L0.9995,15.9998 L19.0005,15.9998 L19.0005,3.0008 L15.0015,3.0008 L15.0015,-0.0002 L5.0005,-0.0002 Z M6.0015,3.0008 L14.0005,3.0008 L14.0005,0.9998 L6.0015,0.9998 L6.0015,3.0008 Z M1.9995,15.0008 L18.0005,15.0008 L18.0005,4.0008 L1.9995,4.0008 L1.9995,15.0008 Z" id="Fill-1"></path>
            <path d="M12.0009,5 L8.0009,5 L8.0009,7.5 L5.5009,7.5 L5.5009,11.5 L8.0009,11.5 L8.0009,14 L12.0009,14 L12.0009,11.5 L14.4999,11.5 L14.4999,7.5 L12.0009,7.5 L12.0009,5 Z M11.0009,6 L11.0009,7.5 L11.0009,8.5 L12.0009,8.5 L13.4999,8.5 L13.4999,10.5 L12.0009,10.5 L11.0009,10.5 L11.0009,11.5 L11.0009,13 L9.0009,13 L9.0009,11.5 L9.0009,10.5 L8.0009,10.5 L6.5009,10.5 L6.5009,8.5 L8.0009,8.5 L9.0009,8.5 L9.0009,7.5 L9.0009,6 L11.0009,6 Z" id="Fill-2"></path>
        </g>
    </g>
</svg>